<?xml version="1.0" standalone="no"?>
<!DOCTYPE svg PUBLIC "-//W3C//DTD SVG 20010904//EN"
 "http://www.w3.org/TR/2001/REC-SVG-20010904/DTD/svg10.dtd">
<svg version="1.0" xmlns="http://www.w3.org/2000/svg"
 width="600.000000pt" height="656.000000pt" viewBox="0 0 600.000000 656.000000"
 preserveAspectRatio="xMidYMid meet">

<g transform="translate(0.000000,656.000000) scale(0.100000,-0.100000)"
fill="#000000" stroke="none">
<path d="M2130 5905 c0 -3 4 -13 10 -23 5 -9 19 -51 31 -92 60 -216 263 -842
295 -909 13 -29 24 -62 24 -72 0 -19 -101 -308 -159 -453 l-27 -69 -94 -27
c-336 -95 -546 -244 -526 -372 12 -76 81 -155 176 -203 87 -44 199 -65 380
-71 165 -6 257 1 555 41 183 25 211 17 85 -23 -100 -32 -186 -49 -287 -57
l-92 -7 5 -87 c3 -47 7 -105 10 -128 6 -49 46 -103 76 -103 11 0 52 24 91 53
83 62 159 107 180 107 14 0 249 -115 337 -165 l45 -26 32 37 c69 78 87 237 44
372 -13 40 -22 74 -20 75 8 6 116 37 127 37 6 0 13 -9 17 -19 18 -59 46 -264
51 -381 6 -119 3 -149 -19 -255 -59 -289 -201 -532 -449 -771 -111 -107 -152
-138 -258 -196 -119 -65 -321 -168 -330 -168 -6 0 -10 83 -10 208 0 248 -23
563 -49 687 -11 50 -27 122 -35 160 -9 39 -18 124 -22 190 -6 118 -1 161 43
342 4 18 0 23 -29 28 -18 3 -45 2 -59 -4 -23 -8 -27 -17 -32 -67 -6 -62 -14
-71 -67 -79 -19 -3 -91 -28 -160 -55 -118 -47 -364 -146 -422 -170 l-26 -11 5
-118 c9 -193 -33 -385 -137 -621 -22 -50 -40 -93 -40 -97 0 -7 74 3 168 24 72
15 75 15 102 -5 52 -39 77 -38 113 1 66 69 168 319 207 507 l18 85 1 -60 c1
-85 -65 -533 -114 -765 -66 -316 -189 -701 -301 -947 -24 -54 -29 -73 -19 -73
28 0 404 61 560 91 582 111 1129 269 1510 437 120 53 361 173 449 224 357 207
652 482 830 770 107 174 198 398 235 575 56 268 2 494 -158 665 -106 114 -232
171 -413 188 -98 9 -236 1 -330 -20 -36 -7 -44 -4 -135 57 -120 80 -119 79
-104 97 24 29 -32 99 -119 149 -88 50 -411 127 -530 127 -26 0 -107 -18 -181
-39 l-134 -40 35 30 c19 16 69 50 110 75 127 75 120 60 81 167 -18 50 -87 245
-152 432 -66 187 -128 352 -137 367 -13 21 -118 77 -439 237 -233 116 -423
209 -423 206z m1933 -1949 c242 -161 378 -332 423 -534 66 -298 -149 -673
-591 -1026 -240 -192 -371 -281 -650 -444 -131 -76 -458 -242 -476 -242 -8 0
-10 26 -5 93 13 186 7 173 97 218 44 22 97 55 119 75 22 20 44 33 50 29 5 -3
10 -28 10 -54 0 -27 3 -69 6 -95 6 -40 9 -46 26 -40 22 7 240 155 363 247 327
244 625 547 758 771 53 88 98 189 89 198 -4 3 -56 25 -116 48 -60 23 -188 83
-285 132 l-176 90 -67 -6 -68 -5 0 52 c0 59 -22 189 -44 260 -16 54 -19 52 75
77 24 7 94 36 156 66 90 43 119 63 155 104 23 27 49 48 56 45 7 -2 49 -29 95
-59z"/>
<path d="M1197 5419 c-112 -17 -205 -89 -256 -198 -21 -46 -26 -70 -26 -136 0
-108 31 -172 121 -253 l65 -59 -1 -388 0 -388 -39 -36 c-88 -82 -111 -175
-117 -461 l-5 -215 -102 -150 c-115 -171 -260 -380 -306 -443 -34 -46 -33 -58
11 -99 58 -54 155 -76 225 -51 18 6 36 9 39 5 4 -4 -3 -39 -14 -79 -12 -40
-25 -108 -28 -150 -6 -70 -5 -82 20 -131 47 -98 136 -140 286 -136 l95 3 1
-689 1 -690 77 -8 c43 -5 79 -7 80 -5 2 2 8 375 14 830 11 807 12 828 33 885
70 190 106 390 94 531 -8 111 -32 255 -52 318 l-16 50 37 48 c51 67 70 139 57
212 -11 60 -53 135 -104 186 -28 28 -31 37 -36 117 -7 127 -5 561 4 754 l7
168 52 33 c68 44 121 106 147 175 17 45 20 72 17 136 -6 98 -34 161 -103 224
-81 75 -177 106 -278 90z m88 -137 c3 -26 13 -58 22 -71 14 -22 20 -23 95 -20
96 5 108 -7 46 -44 -24 -14 -55 -36 -71 -51 l-27 -25 25 -67 c14 -36 25 -73
25 -80 0 -25 -27 -15 -78 31 -27 25 -59 45 -69 45 -11 0 -43 -20 -72 -45 -80
-68 -93 -59 -55 35 14 35 23 72 20 84 -3 12 -33 38 -66 60 -85 55 -81 70 18
61 91 -8 101 -1 122 80 7 28 17 59 23 69 9 18 10 19 22 2 7 -9 16 -38 20 -64z"/>
</g>
</svg>
